<?xml version="1.0" encoding="UTF-8"?>
<svg xmlns="http://www.w3.org/2000/svg" viewBox="0 0 90 90" width="100%" height="100%" fill="white"><path d="M 36.138672 28.039062 A 1.8 1.8 0 0 0 34.900391 28.599609 L 16.400391 47.599609 A 2 2 0 0 0 16.400391 50.400391 L 35.099609 69.400391 A 1.8 1.8 0 0 0 36.5 70 L 37 70 A 1.9 1.9 0 0 0 38 68 L 38 59 L 62.099609 59 A 1.9 1.9 0 0 0 64 57 L 64 41 A 1.9 1.9 0 0 0 62.099609 39 L 38 39 L 38 30 A 1.8 1.8 0 0 0 36.138672 28.039062 z M 34 34.900391 L 34 41 C 34 42.1 35.4 43 36.5 43 L 60 43 L 60 55 L 36.5 55 C 35.4 55 34 55.9 34 57 L 34 63.099609 L 20.199219 49 L 34 34.900391 z M 68 39 A 2 2 0 0 0 66 41 L 66 57 A 2 2 0 0 0 70 57 L 70 41 A 2 2 0 0 0 68 39 z M 74 39 A 2 2 0 0 0 72 41 L 72 57 A 2 2 0 0 0 76 57 L 76 41 A 2 2 0 0 0 74 39 z M 80 39 A 2 2 0 0 0 78 41 L 78 57 A 2 2 0 0 0 82 57 L 82 41 A 2 2 0 0 0 80 39 z"></path></svg>