<svg xmlns="http://www.w3.org/2000/svg" width="64" height="64" viewBox="0 0 64 64"><radialGradient id="pq1pBXy~BR3zAUXmMcK_ka" cx="32" cy="-45.5" r="31.259" gradientTransform="matrix(1 0 0 -1 0 -14)" gradientUnits="userSpaceOnUse"><stop offset="0" stop-color="#f4e9c3"></stop><stop offset=".219" stop-color="#f8eecd"></stop><stop offset=".644" stop-color="#fdf4dc"></stop><stop offset="1" stop-color="#fff6e1"></stop></radialGradient><path fill="url(#pq1pBXy~BR3zAUXmMcK_ka)" d="M58,54c-1.105,0-2-0.895-2-2s0.895-2,2-2h2.5c1.925,0,3.5-1.575,3.5-3.5S62.425,43,60.5,43H50	c-1.381,0-2.5-1.119-2.5-2.5S48.619,38,50,38h8c1.65,0,3-1.35,3-3s-1.35-3-3-3H43v-6h17c2.335,0,4.22-2.028,3.979-4.41	C63.77,19.514,61.897,18,59.811,18H58c-1.105,0-2-0.895-2-2s0.895-2,2-2h0.357c1.308,0,2.499-0.941,2.63-2.242	C61.137,10.261,59.966,9,58.5,9h-14C43.672,9,43,8.328,43,7.5S43.672,6,44.5,6h3.857c1.308,0,2.499-0.941,2.63-2.242	C51.137,2.261,49.966,1,48.5,1H11.643c-1.308,0-2.499,0.941-2.63,2.242C8.863,4.739,10.034,6,11.5,6H13c1.105,0,2,0.895,2,2	s-0.895,2-2,2H6.189c-2.086,0-3.958,1.514-4.168,3.59C1.78,15.972,3.665,18,6,18h2.5c1.933,0,3.5,1.567,3.5,3.5S10.433,25,8.5,25	H5.189c-2.086,0-3.958,1.514-4.168,3.59C0.78,30.972,2.665,33,5,33h17v11H6c-1.65,0-3,1.35-3,3s1.35,3,3,3l0,0c1.105,0,2,0.895,2,2	s-0.895,2-2,2H4.189c-2.086,0-3.958,1.514-4.168,3.59C-0.22,59.972,1.665,62,4,62h53.811c2.086,0,3.958-1.514,4.168-3.59	C62.22,56.028,60.335,54,58,54z"></path><linearGradient id="pq1pBXy~BR3zAUXmMcK_kb" x1="34" x2="34" y1="52" y2="9.988" gradientUnits="userSpaceOnUse"><stop offset="0" stop-color="#155cde"></stop><stop offset=".278" stop-color="#1f7fe5"></stop><stop offset=".569" stop-color="#279ceb"></stop><stop offset=".82" stop-color="#2cafef"></stop><stop offset="1" stop-color="#2eb5f0"></stop></linearGradient><path fill="url(#pq1pBXy~BR3zAUXmMcK_kb)" d="M15,14.841C15,11.708,16.709,10,19.841,10h9.91C42.338,10,53,15.695,53,31.415 C53,45.767,44.104,53,29.751,53h-9.91C16.709,53,15,51.292,15,48.159V14.841z M29.942,44C37.028,44,42.1,41.234,42.1,31.279 C42.1,22.263,37.429,19,29.942,19H26v25H29.942z"></path></svg>