<?xml version="1.0" encoding="UTF-8"?>
<svg xmlns="http://www.w3.org/2000/svg" xmlns:xlink="http://www.w3.org/1999/xlink" viewBox="0 0 96 96" width="75px" height="75px">
<g id="surface82619122">
<path style=" stroke:none;fill-rule:nonzero;fill:rgb(18.039216%,80.000001%,44.313726%);fill-opacity:1;" d="M 48 8 C 25.945312 8 8 25.945312 8 48 C 8 70.054688 25.945312 88 48 88 C 70.054688 88 88 70.054688 88 48 C 88 43.496094 87.214844 39.175781 85.835938 35.132812 L 79.359375 41.609375 C 79.78125 43.671875 80 45.8125 80 48 C 80 65.644531 65.644531 80 48 80 C 30.355469 80 16 65.644531 16 48 C 16 30.355469 30.355469 16 48 16 C 54.53125 16 60.609375 17.976562 65.679688 21.351562 L 71.40625 15.625 C 64.8125 10.847656 56.738281 8 48 8 Z M 85.171875 13.171875 L 44 54.34375 L 30.828125 41.171875 L 25.171875 46.828125 L 44 65.65625 L 90.828125 18.828125 Z M 85.171875 13.171875 "/>
</g>
</svg>
